/* XPM */
static char * icon_xpm[] = {
"32 32 13 1 ",
"  c None",
". c #7F5F3F",
"X c #9F5F3F",
"o c #BF5F3F",
"O c #DF5F3F",
"+ c #BFBF38",
"@ c #CCBA26",
"# c #EAF000",
"$ c #FFF23F",
"% c #FFFF50",
"& c #BF9F9F",
"* c #C0BCBF",
"= c #DADFD4",
/* pixels */
"           oooooooooo           ",
"       ooooOOOOOOOOOOooo        ",
"       oOOOOOOOOOOOOOOOOoo      ",
"       oOOOOOOOOOOOOOOOOOOoo&   ",
"       oOOOOO++++OOOOOOOOOOo&*  ",
"       oOOO+##$%%++++OOOOOOo&*= ",
"      XoOoO+#$$%$##+@++OOOo&**= ",
"      XOoO+#$$%$##+@##+OOOo&*=*.",
"      XoOo+#$$%$#++@#++OOOo&*=* ",
"      Xoo+#$$%$##+@##+OOOOo&==* ",
"     Xooo+#$$%$##@@##oOoOX&*=*. ",
"     Xoooo++++##+@##+OoOoX&*=*  ",
"     Xoooooooo++++#+OoOoOX&*=*  ",
"    Xooooooooooooo++ooooX&*=*.  ",
"    XoooooooooooooooooooX&*=*   ",
"    XoooooooooooooooooooX&**.   ",
"    XooooooooooooooooooX&*=*    ",
"   XoooooooooooooooooooX&*=*    ",
"   XoXoXoooooooooooooooX&**.    ",
"   .XoXoXoXoXoXoooooooX&*=*     ",
"   .XXXXoXoXoXoXXoXoXoX&*=*     ",
"  .XXXXXXXXXXXXXoXoXoX.&**.     ",
"  .XXXXXXXXXXXXXXXXXXX.&=*      ",
"  .XX.......XXX+X++XX.&*=*      ",
"  ...............XXXX.&=*.      ",
" ....&&&&&&&..........&=*       ",
" .**********&&&&.....&**.       ",
" .==========**********=*        ",
" ..*********===========*        ",
" ...........***********.        ",
"  .....................         ",
"            ..........          "
};
